<?xml version="1.0" encoding="UTF-8" standalone="no"?>
<svg
   xmlns:dc="http://purl.org/dc/elements/1.1/"
   xmlns:cc="http://creativecommons.org/ns#"
   xmlns:rdf="http://www.w3.org/1999/02/22-rdf-syntax-ns#"
   xmlns:svg="http://www.w3.org/2000/svg"
   xmlns="http://www.w3.org/2000/svg"
   xmlns:sodipodi="http://sodipodi.sourceforge.net/DTD/sodipodi-0.dtd"
   xmlns:inkscape="http://www.inkscape.org/namespaces/inkscape"
   height="310"
   width="310"
   id="svg2"
   version="1.1"
   inkscape:version="0.91 r"
   sodipodi:docname="database.svg">
  <metadata
     id="metadata10">
    <rdf:RDF>
      <cc:Work
         rdf:about="">
        <dc:format>image/svg+xml</dc:format>
        <dc:type
           rdf:resource="http://purl.org/dc/dcmitype/StillImage" />
        <dc:title></dc:title>
      </cc:Work>
    </rdf:RDF>
  </metadata>
  <defs
     id="defs8">
    <inkscape:path-effect
       effect="spiro"
       id="path-effect3711"
       is_visible="true" />
    <inkscape:path-effect
       effect="spiro"
       id="path-effect3661"
       is_visible="true" />
    <clipPath
       clipPathUnits="userSpaceOnUse"
       id="clipPath3665">
      <rect
         ry="5"
         rx="5"
         y="355.75562"
         x="289.62714"
         height="186.37965"
         width="186.37965"
         id="rect3667"
         style="opacity:1;fill:#f9f9f9;fill-opacity:1;fill-rule:nonzero;stroke:#000000;stroke-width:0.39999998;stroke-miterlimit:4;stroke-dasharray:none;stroke-dashoffset:0;stroke-opacity:1" />
    </clipPath>
    <clipPath
       clipPathUnits="userSpaceOnUse"
       id="clipPath4515">
      <rect
         ry="5"
         rx="5"
         y="355.75562"
         x="289.62714"
         height="186.37965"
         width="186.37965"
         id="rect4517"
         style="opacity:1;fill:#f9f9f9;fill-opacity:1;fill-rule:nonzero;stroke:#000000;stroke-width:0.39999998;stroke-miterlimit:4;stroke-dasharray:none;stroke-dashoffset:0;stroke-opacity:1" />
    </clipPath>
  </defs>
  <sodipodi:namedview
     pagecolor="#ffffff"
     bordercolor="#666666"
     borderopacity="1"
     objecttolerance="10"
     gridtolerance="10"
     guidetolerance="10"
     inkscape:pageopacity="0"
     inkscape:pageshadow="2"
     inkscape:window-width="1366"
     inkscape:window-height="741"
     id="namedview6"
     showgrid="false"
     inkscape:zoom="1.3037281"
     inkscape:cx="271.93541"
     inkscape:cy="115.69171"
     inkscape:window-x="0"
     inkscape:window-y="0"
     inkscape:window-maximized="1"
     inkscape:current-layer="svg2"
     showguides="true"
     inkscape:guide-bbox="true" />
  <text
     sodipodi:linespacing="130%"
     id="text3427"
     y="-246.83603"
     x="600.05939"
     style="font-style:normal;font-weight:normal;font-size:40px;line-height:129.99999523%;font-family:Sans;letter-spacing:0px;word-spacing:0px;fill:#f9f9f9;fill-opacity:1;stroke:none;stroke-width:1px;stroke-linecap:butt;stroke-linejoin:miter;stroke-opacity:1"
     xml:space="preserve"><tspan
       style="font-style:normal;font-variant:normal;font-weight:normal;font-stretch:normal;line-height:0%;font-family:'Caviar Dreams';-inkscape-font-specification:'Caviar Dreams';fill:#f9f9f9"
       y="-246.83603"
       x="600.05939"
       id="tspan3429"
       sodipodi:role="line">sqlibri</tspan></text>
  <g
     id="g4519"
     transform="matrix(1.7146356,0,0,1.7147086,-501.39159,-614.81061)">
    <rect
       ry="2.9159474"
       rx="2.9160717"
       y="355.75562"
       x="289.62714"
       height="186.37965"
       width="186.37965"
       id="rect3417"
       style="opacity:1;fill:#f9f9f9;fill-opacity:1;fill-rule:nonzero;stroke:#000000;stroke-width:0.23328076;stroke-miterlimit:4;stroke-dasharray:none;stroke-dashoffset:0;stroke-opacity:1" />
    <g
       transform="translate(-7.343759,3.350902)"
       id="g3635">
      <path
         d="m 363.45309,489.76444 c -18.63087,0 -33.74156,-5.04146 -33.74156,-11.24718 0,-3.39393 0,-7.10638 0,-11.24719 0,-0.97754 0.48872,-1.90569 1.19167,-2.8118 3.76192,4.84376 16.84336,8.4354 32.54989,8.4354 15.70653,0 28.78797,-3.59164 32.54989,-8.4354 0.70295,0.90611 1.19167,1.83426 1.19167,2.8118 0,3.25658 0,6.71097 0,11.24719 0,6.20572 -15.11341,11.24718 -33.74156,11.24718 z m 0,-22.49437 c -18.63087,0 -33.74156,-5.04145 -33.74156,-11.24719 0,-3.39665 0,-7.10365 0,-11.24718 0,-0.59585 0.22511,-1.17526 0.5272,-1.74913 l 0,0 c 0.1703,-0.35972 0.39542,-0.71392 0.66447,-1.06267 3.76192,4.84103 16.84336,8.43539 32.54989,8.43539 15.70653,0 28.78797,-3.59436 32.54989,-8.43539 0.26905,0.34875 0.49425,0.70295 0.66447,1.06267 l 0,0 c 0.30209,0.57387 0.5272,1.15328 0.5272,1.74913 0,3.25658 0,6.70825 0,11.24718 0,6.20574 -15.11341,11.24719 -33.74156,11.24719 z m 0,-22.49437 c -18.63087,0 -33.74156,-5.03874 -33.74156,-11.24719 0,-1.77661 0,-3.65481 0,-5.6236 0,-1.78759 0,-3.64382 0,-5.62359 0,-6.20845 15.11069,-11.24718 33.74156,-11.24718 18.62815,0 33.74156,5.03873 33.74156,11.24718 0,1.75465 0,3.61633 0,5.62359 0,1.7217 0,3.53672 0,5.6236 0,6.20845 -15.11341,11.24719 -33.74156,11.24719 z m 0,-28.11797 c -12.42244,0 -22.49438,2.51252 -22.49438,5.62359 0,3.11107 10.07194,5.62359 22.49438,5.62359 12.42244,0 22.49438,-2.51252 22.49438,-5.62359 0,-3.11107 -10.07194,-5.62359 -22.49438,-5.62359 z"
         id="path4"
         inkscape:connector-curvature="0"
         style="fill:#333333" />
      <g
         id="g4237"
         transform="matrix(0.19128763,4.7787961e-5,-4.6502589e-5,0.18612711,286.64973,272.26523)">
        <path
           style="fill:#000000"
           inkscape:connector-curvature="0"
           id="path3245-7-2"
           d="m 623.68713,711.91858 c 0,0 13.58399,9.026 25.164,-1.086 51.06299,-73.06 110.48597,-97.25098 141.01496,-167.539 5.112,56.64801 -89.414,117.78802 -89.414,117.78802 0,0 56.90802,-30.18798 88.156,-79.92901 -0.61096,39.354 -86.73199,83.43701 -86.73199,83.43701 0,0 35.82098,-13.90399 83.73199,-56.32501 -2.89398,26.23602 -83.79998,60.698 -83.79998,60.698 0,0 52.30603,-22.75702 81.07599,-43.61298 -8.23298,31.18396 -80.14399,49.44 -80.14399,49.44 0,0 29.57001,-7.46899 66.245,-13.159 -15.88397,19.75098 -66.96301,19.271 -66.96301,19.271 0,0 36.06604,3.974 57.82702,0.66699 1.50202,24.19202 -58.76904,13.69898 -58.76904,13.69898 0,0 34.21704,6.06201 53.44104,13.04803 -3.12799,21.37201 -57.50702,-0.73504 -57.50702,-0.73504 0,0 28.80701,12.341 45.625,25.07501 -8.84998,4.078 -46.97498,-20.427 -46.97498,-20.427 0,0 33.92798,22.13702 39.71796,35.05902 -7.34399,4.84399 -41.80597,-29.164 -41.80597,-29.164 0,0 29.37097,27.474 34.53497,42.164 -9.02099,-2.96698 -38.24694,-32.10602 -38.24694,-32.10602 0,0 28.34698,26.604 30.61096,40.28204 -3.27399,5.06 -35.61798,-31.58105 -35.61798,-31.58105 0,0 25.94098,27.12005 28.17596,37.53601 -7.27698,0.47205 -35.39496,-30.539 -35.39496,-30.539 0,0 18.45002,15.65204 29.04102,38.43902 -9.66205,-2.82897 -35.09601,-33.05401 -35.09601,-33.05401 0,0 22.04297,22.23602 28.61597,38.80304 -13.607,-0.89404 -37.61902,-49.62903 -76.51196,-76.14905 z" />
        <path
           style="fill:#000000"
           inkscape:connector-curvature="0"
           id="path2816-6-8-5-0-0"
           d="m 687.59412,853.4386 0,0 z m 0,0 c 34.76898,-43.23999 -56.60303,-120.85901 -10.20704,-125.60401 7.65705,-0.31897 15.461,-2.10498 23.11701,-4.91699 44.30499,61.81598 59.79004,163.01203 58.58404,360.384 -11.83703,-176.05099 -29.29504,-198.46603 -47.25903,-213.108 -8.58301,-5.703 -16.63202,-11.276 -24.23498,-16.73101 0.007,-0.004 -0.007,-0.019 0,-0.024 z" />
        <path
           style="fill:#000000"
           inkscape:connector-curvature="0"
           id="path2816-6-6-6"
           d="m 501.89111,662.84259 5.08002,11.32501 -4.68402,7.83002 c -45.27502,27.69696 -97.617,83.33197 -97.617,83.33197 0,0 35.43399,-45.49402 97.221,-102.487 z" />
        <path
           style="fill:#000000"
           inkscape:connector-curvature="0"
           id="path3245-6-4"
           d="m 961.82806,551.07959 c -11.18994,56.461 -182.13995,96.40601 -182.13995,96.40601 0,0 100.66699,-17.57801 167.25,-59.65601 -14.38,38.35004 -166.20099,63.38403 -166.20099,63.38403 0,0 61.64398,-6.06903 152.19098,-37.49505 -11.54401,21.36206 -115.01001,36.62402 -145.27002,40.66504 19.78003,-2.53699 88.479,-11.53797 133.17804,-20.20398 -14.81403,17.97595 -85.29901,24.48999 -136.06799,26.84497 39.22699,-0.849 88.14697,-1.62598 105.14398,-0.72199 -29.849,18.08802 -114.48798,6.89698 -114.48798,6.89698 0,0 55.91797,11.46203 91.60498,12.794 -5.85901,23.969 -98.01397,1.04804 -98.01397,1.04804 0,0 52.29297,13.11596 80.44299,23.97894 -9.78204,16.16101 -59.15204,-3.05395 -78.69501,-11.46497 14.25897,6.54798 43.24597,20.88703 51.52399,32.76398 -15.44702,2.13104 -66.32098,-29.57098 -66.32098,-29.57098 0,0 45.02795,28.51599 49.82196,42.36499 -10.94397,2.62604 -41.70197,-23.09699 -52.43201,-32.43799 9.54205,8.50702 33.87604,31.20203 36.44604,43.62298 -9.987,-3.59497 -33.01703,-23.96698 -43.90301,-33.92901 10.14801,9.74603 29.781,30.02301 28.98901,40.315 -6.87604,0.61603 -28.60803,-20.64099 -39.47601,-31.763 9.31097,9.92902 25.63397,28.40802 25.63397,36.02704 -6.57898,-0.59802 -21.09198,-13.68604 -32.55499,-25.05103 7.43103,8.753 15.52801,19.98102 19.76105,31.43604 -8.43305,-2.81104 -22.24604,-15.95001 -32.25104,-26.35602 8.31903,10.29999 18.37799,23.89002 18.22302,29.24597 0,0 -13.745,-5.84497 -30.76001,-27.10199 6.466,9.20404 14.703,22.159 15.729,29.73499 0,0 -43.56103,-29.54297 -52.12902,-70.935 25.109,-3.27295 33.76904,10.94306 36.70202,19.73804 49.46198,-20.19702 90.401,-81.37402 37.35498,-65.482 74.79303,-32.53497 152.60901,-58.518 220.70697,-105.09802 z" />
        <path
           style="fill:#000000"
           inkscape:connector-curvature="0"
           id="path3245-6-9-3"
           d="m 571.87012,615.67657 c 22.41198,0.12201 48.53601,14.25599 75.87597,57.51203 8.15101,5.34997 15.78205,11.03699 22.90705,17.17499 22.90295,-12.65802 46.52398,-23.76899 70.46795,-34.18598 54.39002,-16.35504 10.33802,48.05097 -40.617,66.76398 -7.65601,2.81103 -15.45996,4.59698 -23.117,4.91699 -46.396,4.745 44.97601,82.36304 10.20703,125.60401 C 524.14313,736.19263 578.96314,676.5766 502.28711,681.97461 l 4.68402,-7.80701 -5.08002,-11.32501 c 0,0 28.64301,-47.39197 69.97901,-47.16602 z m -12.81598,21.20606 c -1.07001,-0.033 -2.17804,0.094 -3.263,0.396 -5.78601,1.60998 -9.16004,7.61297 -7.55005,13.39898 1.61005,5.78699 7.58899,9.18396 13.37604,7.57398 5.78601,-1.60999 9.18298,-7.61298 7.573,-13.39899 -1.30701,-4.70203 -5.50202,-7.83002 -10.13599,-7.96997 z" />
        <path
           style="fill:#000000"
           inkscape:connector-curvature="0"
           id="path3292-3"
           d="m 561.01111,632.33856 c 6.35498,0.19202 12.11798,4.45801 13.91198,10.90601 2.20704,7.93506 -2.43395,16.15503 -10.36999,18.36304 -7.935,2.20696 -16.15497,-2.435 -18.36298,-10.37 -2.20703,-7.93603 2.435,-16.15601 10.37,-18.36304 1.48797,-0.41394 2.98498,-0.58093 4.45099,-0.53601 z m -1.98102,4.54407 c -1.06897,-0.033 -2.15399,0.094 -3.23895,0.396 -5.78601,1.60998 -9.18305,7.61297 -7.57306,13.39898 1.60901,5.78699 7.612,9.15998 13.39905,7.55097 5.78601,-1.60999 9.18298,-7.58997 7.57299,-13.37598 -1.307,-4.70203 -5.526,-7.83002 -10.16003,-7.96997 z" />
        <path
           style="fill:#000000"
           inkscape:connector-curvature="0"
           id="path3296-6"
           transform="matrix(-0.718425,0.199844,0.199844,0.718425,936.584,110.266)"
           d="m 573.28522,668.46039 c 1.00341,3.60724 4.74157,5.71765 8.34875,4.71423 3.60724,-1.00342 5.71784,-4.74078 4.71442,-8.34796 -1.00342,-3.60724 -4.74097,-5.71857 -8.34821,-4.71515 -3.60717,1.00342 -5.71838,4.7417 -4.71496,8.34888 z" />
        <path
           style="fill:#000000"
           inkscape:connector-curvature="0"
           id="path3245-6-9-2-1-9"
           d="m 571.87012,615.67657 c 22.41198,0.12201 48.53601,14.25599 75.87597,57.51203 -49.79595,-64.99603 -92.721,-54.20502 -114.83898,-43.66998 10.84899,-7.83204 24.07702,-13.92298 38.96301,-13.84205 z" />
        <path
           style="fill:#000000"
           inkscape:connector-curvature="0"
           id="path4336-0"
           d="m 644.41309,819.69562 c -66.53797,-57.13404 -79.49897,-97.151 -94.30799,-118.89203 70.41901,-3.64899 58.50702,65.25903 94.30799,118.89203 z" />
      </g>
    </g>
    <path
       clip-path="url(#clipPath4515)"
       inkscape:connector-curvature="0"
       inkscape:original-d="m 322.92009,483.6266 84.75693,96.64592 86.291,-46.40538 -104.31623,-51.7746 z"
       inkscape:path-effect="#path-effect3711"
       id="path3709"
       d="m 322.92009,483.6266 84.75693,96.64592 86.291,-46.40538 -104.31623,-51.7746 -66.7317,1.53406 z"
       style="opacity:0.3;fill:#000000;fill-opacity:1;fill-rule:evenodd;stroke:#000000;stroke-width:0.58320194px;stroke-linecap:butt;stroke-linejoin:miter;stroke-opacity:1" />
    <g
       id="g3683"
       transform="translate(-7.343759,3.350902)">
      <path
         style="fill:#333333"
         inkscape:connector-curvature="0"
         id="path3685"
         d="m 363.45309,489.76444 c -18.63087,0 -33.74156,-5.04146 -33.74156,-11.24718 0,-3.39393 0,-7.10638 0,-11.24719 0,-0.97754 0.48872,-1.90569 1.19167,-2.8118 3.76192,4.84376 16.84336,8.4354 32.54989,8.4354 15.70653,0 28.78797,-3.59164 32.54989,-8.4354 0.70295,0.90611 1.19167,1.83426 1.19167,2.8118 0,3.25658 0,6.71097 0,11.24719 0,6.20572 -15.11341,11.24718 -33.74156,11.24718 z m 0,-22.49437 c -18.63087,0 -33.74156,-5.04145 -33.74156,-11.24719 0,-3.39665 0,-7.10365 0,-11.24718 0,-0.59585 0.22511,-1.17526 0.5272,-1.74913 l 0,0 c 0.1703,-0.35972 0.39542,-0.71392 0.66447,-1.06267 3.76192,4.84103 16.84336,8.43539 32.54989,8.43539 15.70653,0 28.78797,-3.59436 32.54989,-8.43539 0.26905,0.34875 0.49425,0.70295 0.66447,1.06267 l 0,0 c 0.30209,0.57387 0.5272,1.15328 0.5272,1.74913 0,3.25658 0,6.70825 0,11.24718 0,6.20574 -15.11341,11.24719 -33.74156,11.24719 z m 0,-22.49437 c -18.63087,0 -33.74156,-5.03874 -33.74156,-11.24719 0,-1.77661 0,-3.65481 0,-5.6236 0,-1.78759 0,-3.64382 0,-5.62359 0,-6.20845 15.11069,-11.24718 33.74156,-11.24718 18.62815,0 33.74156,5.03873 33.74156,11.24718 0,1.75465 0,3.61633 0,5.62359 0,1.7217 0,3.53672 0,5.6236 0,6.20845 -15.11341,11.24719 -33.74156,11.24719 z m 0,-28.11797 c -12.42244,0 -22.49438,2.51252 -22.49438,5.62359 0,3.11107 10.07194,5.62359 22.49438,5.62359 12.42244,0 22.49438,-2.51252 22.49438,-5.62359 0,-3.11107 -10.07194,-5.62359 -22.49438,-5.62359 z" />
      <g
         transform="matrix(0.19128763,4.7787961e-5,-4.6502589e-5,0.18612711,286.64973,272.26523)"
         id="g3687">
        <path
           d="m 623.68713,711.91858 c 0,0 13.58399,9.026 25.164,-1.086 51.06299,-73.06 110.48597,-97.25098 141.01496,-167.539 5.112,56.64801 -89.414,117.78802 -89.414,117.78802 0,0 56.90802,-30.18798 88.156,-79.92901 -0.61096,39.354 -86.73199,83.43701 -86.73199,83.43701 0,0 35.82098,-13.90399 83.73199,-56.32501 -2.89398,26.23602 -83.79998,60.698 -83.79998,60.698 0,0 52.30603,-22.75702 81.07599,-43.61298 -8.23298,31.18396 -80.14399,49.44 -80.14399,49.44 0,0 29.57001,-7.46899 66.245,-13.159 -15.88397,19.75098 -66.96301,19.271 -66.96301,19.271 0,0 36.06604,3.974 57.82702,0.66699 1.50202,24.19202 -58.76904,13.69898 -58.76904,13.69898 0,0 34.21704,6.06201 53.44104,13.04803 -3.12799,21.37201 -57.50702,-0.73504 -57.50702,-0.73504 0,0 28.80701,12.341 45.625,25.07501 -8.84998,4.078 -46.97498,-20.427 -46.97498,-20.427 0,0 33.92798,22.13702 39.71796,35.05902 -7.34399,4.84399 -41.80597,-29.164 -41.80597,-29.164 0,0 29.37097,27.474 34.53497,42.164 -9.02099,-2.96698 -38.24694,-32.10602 -38.24694,-32.10602 0,0 28.34698,26.604 30.61096,40.28204 -3.27399,5.06 -35.61798,-31.58105 -35.61798,-31.58105 0,0 25.94098,27.12005 28.17596,37.53601 -7.27698,0.47205 -35.39496,-30.539 -35.39496,-30.539 0,0 18.45002,15.65204 29.04102,38.43902 -9.66205,-2.82897 -35.09601,-33.05401 -35.09601,-33.05401 0,0 22.04297,22.23602 28.61597,38.80304 -13.607,-0.89404 -37.61902,-49.62903 -76.51196,-76.14905 z"
           id="path3689"
           inkscape:connector-curvature="0"
           style="fill:#000000" />
        <path
           d="m 687.59412,853.4386 0,0 z m 0,0 c 34.76898,-43.23999 -56.60303,-120.85901 -10.20704,-125.60401 7.65705,-0.31897 15.461,-2.10498 23.11701,-4.91699 44.30499,61.81598 59.79004,163.01203 58.58404,360.384 -11.83703,-176.05099 -29.29504,-198.46603 -47.25903,-213.108 -8.58301,-5.703 -16.63202,-11.276 -24.23498,-16.73101 0.007,-0.004 -0.007,-0.019 0,-0.024 z"
           id="path3691"
           inkscape:connector-curvature="0"
           style="fill:#000000" />
        <path
           d="m 501.89111,662.84259 5.08002,11.32501 -4.68402,7.83002 c -45.27502,27.69696 -97.617,83.33197 -97.617,83.33197 0,0 35.43399,-45.49402 97.221,-102.487 z"
           id="path3693"
           inkscape:connector-curvature="0"
           style="fill:#000000" />
        <path
           d="m 961.82806,551.07959 c -11.18994,56.461 -182.13995,96.40601 -182.13995,96.40601 0,0 100.66699,-17.57801 167.25,-59.65601 -14.38,38.35004 -166.20099,63.38403 -166.20099,63.38403 0,0 61.64398,-6.06903 152.19098,-37.49505 -11.54401,21.36206 -115.01001,36.62402 -145.27002,40.66504 19.78003,-2.53699 88.479,-11.53797 133.17804,-20.20398 -14.81403,17.97595 -85.29901,24.48999 -136.06799,26.84497 39.22699,-0.849 88.14697,-1.62598 105.14398,-0.72199 -29.849,18.08802 -114.48798,6.89698 -114.48798,6.89698 0,0 55.91797,11.46203 91.60498,12.794 -5.85901,23.969 -98.01397,1.04804 -98.01397,1.04804 0,0 52.29297,13.11596 80.44299,23.97894 -9.78204,16.16101 -59.15204,-3.05395 -78.69501,-11.46497 14.25897,6.54798 43.24597,20.88703 51.52399,32.76398 -15.44702,2.13104 -66.32098,-29.57098 -66.32098,-29.57098 0,0 45.02795,28.51599 49.82196,42.36499 -10.94397,2.62604 -41.70197,-23.09699 -52.43201,-32.43799 9.54205,8.50702 33.87604,31.20203 36.44604,43.62298 -9.987,-3.59497 -33.01703,-23.96698 -43.90301,-33.92901 10.14801,9.74603 29.781,30.02301 28.98901,40.315 -6.87604,0.61603 -28.60803,-20.64099 -39.47601,-31.763 9.31097,9.92902 25.63397,28.40802 25.63397,36.02704 -6.57898,-0.59802 -21.09198,-13.68604 -32.55499,-25.05103 7.43103,8.753 15.52801,19.98102 19.76105,31.43604 -8.43305,-2.81104 -22.24604,-15.95001 -32.25104,-26.35602 8.31903,10.29999 18.37799,23.89002 18.22302,29.24597 0,0 -13.745,-5.84497 -30.76001,-27.10199 6.466,9.20404 14.703,22.159 15.729,29.73499 0,0 -43.56103,-29.54297 -52.12902,-70.935 25.109,-3.27295 33.76904,10.94306 36.70202,19.73804 49.46198,-20.19702 90.401,-81.37402 37.35498,-65.482 74.79303,-32.53497 152.60901,-58.518 220.70697,-105.09802 z"
           id="path3695"
           inkscape:connector-curvature="0"
           style="fill:#000000" />
        <path
           d="m 571.87012,615.67657 c 22.41198,0.12201 48.53601,14.25599 75.87597,57.51203 8.15101,5.34997 15.78205,11.03699 22.90705,17.17499 22.90295,-12.65802 46.52398,-23.76899 70.46795,-34.18598 54.39002,-16.35504 10.33802,48.05097 -40.617,66.76398 -7.65601,2.81103 -15.45996,4.59698 -23.117,4.91699 -46.396,4.745 44.97601,82.36304 10.20703,125.60401 C 524.14313,736.19263 578.96314,676.5766 502.28711,681.97461 l 4.68402,-7.80701 -5.08002,-11.32501 c 0,0 28.64301,-47.39197 69.97901,-47.16602 z m -12.81598,21.20606 c -1.07001,-0.033 -2.17804,0.094 -3.263,0.396 -5.78601,1.60998 -9.16004,7.61297 -7.55005,13.39898 1.61005,5.78699 7.58899,9.18396 13.37604,7.57398 5.78601,-1.60999 9.18298,-7.61298 7.573,-13.39899 -1.30701,-4.70203 -5.50202,-7.83002 -10.13599,-7.96997 z"
           id="path3697"
           inkscape:connector-curvature="0"
           style="fill:#000000" />
        <path
           d="m 561.01111,632.33856 c 6.35498,0.19202 12.11798,4.45801 13.91198,10.90601 2.20704,7.93506 -2.43395,16.15503 -10.36999,18.36304 -7.935,2.20696 -16.15497,-2.435 -18.36298,-10.37 -2.20703,-7.93603 2.435,-16.15601 10.37,-18.36304 1.48797,-0.41394 2.98498,-0.58093 4.45099,-0.53601 z m -1.98102,4.54407 c -1.06897,-0.033 -2.15399,0.094 -3.23895,0.396 -5.78601,1.60998 -9.18305,7.61297 -7.57306,13.39898 1.60901,5.78699 7.612,9.15998 13.39905,7.55097 5.78601,-1.60999 9.18298,-7.58997 7.57299,-13.37598 -1.307,-4.70203 -5.526,-7.83002 -10.16003,-7.96997 z"
           id="path3699"
           inkscape:connector-curvature="0"
           style="fill:#000000" />
        <path
           d="m 573.28522,668.46039 c 1.00341,3.60724 4.74157,5.71765 8.34875,4.71423 3.60724,-1.00342 5.71784,-4.74078 4.71442,-8.34796 -1.00342,-3.60724 -4.74097,-5.71857 -8.34821,-4.71515 -3.60717,1.00342 -5.71838,4.7417 -4.71496,8.34888 z"
           transform="matrix(-0.718425,0.199844,0.199844,0.718425,936.584,110.266)"
           id="path3701"
           inkscape:connector-curvature="0"
           style="fill:#000000" />
        <path
           d="m 571.87012,615.67657 c 22.41198,0.12201 48.53601,14.25599 75.87597,57.51203 -49.79595,-64.99603 -92.721,-54.20502 -114.83898,-43.66998 10.84899,-7.83204 24.07702,-13.92298 38.96301,-13.84205 z"
           id="path3703"
           inkscape:connector-curvature="0"
           style="fill:#000000" />
        <path
           d="m 644.41309,819.69562 c -66.53797,-57.13404 -79.49897,-97.151 -94.30799,-118.89203 70.41901,-3.64899 58.50702,65.25903 94.30799,118.89203 z"
           id="path3705"
           inkscape:connector-curvature="0"
           style="fill:#000000" />
      </g>
    </g>
  </g>
</svg>
