<?xml version="1.0"?><svg width="708.661" height="708.661" xmlns="http://www.w3.org/2000/svg" version="1.1">
 <title>Black Humming bird</title>

 <metadata id="metadata7">image/svg+xml</metadata>
 <g>
  <title>Layer 1</title>
  <g display=" inline" id="layer2">
   <path d="m347.744446,202.821304c0,0 -13.831329,8.942001 -25.622559,-1.076584c-51.994019,-72.3862 -112.501907,-96.353348 -143.587677,-165.9935c-5.205566,56.126099 91.044464,116.702225 91.044464,116.702225c0,0 -57.945526,-29.909615 -89.764267,-79.192451c0.622116,38.991325 88.315323,82.667992 88.315323,82.667992c0,0 -36.475082,-13.775909 -85.259674,-55.806229c2.945816,25.99437 85.328552,60.138779 85.328552,60.138779c0,0 -53.261185,-22.547882 -82.555511,-43.210472c8.383087,30.896873 81.606903,48.982979 81.606903,48.982979c0,0 -30.109161,-7.399033 -67.455017,-13.03746c16.173965,19.569794 68.185944,19.093689 68.185944,19.093689c0,0 -36.724701,3.937088 -58.882187,0.660721c-1.528824,23.969376 59.840836,13.57283 59.840836,13.57283c0,0 -34.841415,6.005707 -54.415558,12.927689c3.184464,21.174942 58.555664,-0.728729 58.555664,-0.728729c0,0 -29.33226,12.227112 -46.457886,24.843842c9.012161,4.041061 47.832947,-20.238281 47.832947,-20.238281c0,0 -34.546844,21.932816 -40.443466,34.735153c7.47937,4.799896 42.570419,-28.894623 42.570419,-28.894623c0,0 -29.90744,27.22049 -35.165955,41.775665c9.185959,-2.940186 38.94458,-31.810532 38.94458,-31.810532c0,0 -28.863907,26.358627 -31.168655,39.91011c3.333267,5.014648 36.26741,-31.288757 36.26741,-31.288757c0,0 -26.414429,26.869736 -28.690186,37.189514c7.409485,0.467377 36.040741,-30.257828 36.040741,-30.257828c0,0 -18.787292,15.508362 -29.570923,38.085373c9.837982,-2.804169 35.736115,-32.750107 35.736115,-32.750107c0,0 -22.445038,22.03096 -29.137512,38.445816c13.854279,-0.886108 38.305481,-49.171738 77.907135,-75.446823l0,0z" fill="#000000" id="path3245-7"/>
   <path d="m282.672028,343.036713l0,0zm0,0c-35.403595,-42.842499 57.635986,-119.744904 10.393219,-124.445694c-7.796906,-0.316757 -15.743591,-2.087082 -23.538513,-4.871796c-45.1138,61.245377 -60.881348,161.507919 -59.654083,357.060135c12.053833,-174.427795 29.830536,-196.636566 48.12149,-211.142151c8.740601,-5.651062 16.935913,-11.172913 24.677887,-16.577148c-0.006958,-0.001984 0.006989,-0.01944 0,-0.025269l0,0.001923z" fill="#000000" id="path2816-6-8-5-0"/>
   <path d="m471.763977,154.197525l-5.172638,11.22049l4.769226,7.757584c46.100433,27.442017 99.398529,82.564133 99.398529,82.564133c0,0 -36.080566,-45.075363 -98.995117,-101.542206z" fill="#000000" id="path2816-6-6"/>
   <path d="m3.435883,43.465954c11.389593,55.939632 185.461608,95.516651 185.461608,95.516651c0,0 -102.504158,-17.415558 -170.299185,-59.106392c14.643862,37.996658 169.230688,62.800575 169.230688,62.800575c0,0 -62.767677,-6.013474 -154.969879,-37.149483c11.75647,21.165047 117.110764,36.285698 147.922913,40.288857c-20.14035,-2.512665 -90.093803,-11.431351 -135.607834,-20.017731c15.084431,17.811142 86.855209,24.264771 138.550644,26.597672c-39.943146,-0.840469 -89.75528,-1.610001 -107.063057,-0.715134c30.394157,17.921906 116.577522,6.833557 116.577522,6.833557c0,0 -56.937988,11.356522 -93.276268,12.67601c5.965508,23.747849 99.801964,1.038681 99.801964,1.038681c0,0 -53.247208,12.994705 -81.910423,23.757568c9.959816,16.012634 60.2313,-3.025696 80.130959,-11.359451c-14.519318,6.488632 -44.035324,20.694962 -52.46434,32.462494c15.728622,2.111389 67.531921,-29.298828 67.531921,-29.298828c0,0 -45.850769,28.253342 -50.731827,41.973877c11.14415,2.603027 42.462585,-22.883087 53.389023,-32.13797c-9.716156,8.428024 -34.493896,30.913712 -37.111191,43.22049c10.169556,-3.562027 33.620178,-23.745911 44.704391,-33.615814c-10.333282,9.655182 -30.324829,29.745773 -29.517975,39.942184c7.001038,0.61113 29.129532,-20.450134 40.195786,-31.469482c-9.481506,9.837845 -26.101837,28.145477 -26.101837,35.695145c6.698441,-0.592712 21.477432,-13.560226 33.148804,-24.820557c-7.566223,8.671875 -15.810501,19.797165 -20.121353,31.146896c8.586777,-2.785706 22.651749,-15.803741 32.840256,-26.1138c-8.471939,10.205154 -18.714355,23.670105 -18.555588,28.976257c0,0 13.995117,-5.791 31.321426,-26.851288c-6.584625,9.117889 -14.972687,21.954208 -16.017212,29.460114c0,0 44.355896,-29.269669 53.080475,-70.28064c-25.56662,-3.242371 -34.384064,10.841537 -37.371826,19.556183c-50.364334,-20.011902 -92.050003,-80.623764 -38.036865,-64.878326c-76.157623,-32.235031 -155.393288,-57.978821 -224.731719,-104.128315z" fill="#000000" id="path3245-6"/>
   <path d="m400.507355,107.466705c-22.820526,0.121063 -49.421661,14.124237 -77.26004,56.981628c-8.300201,5.300278 -16.070129,10.93483 -23.324829,17.016312c-23.320801,-12.540955 -47.373581,-23.549637 -71.754883,-33.870377c-55.381195,-16.204041 -10.526016,47.608398 41.359131,66.148254c7.794922,2.784729 15.741608,4.555054 23.538513,4.870834c47.242767,4.701767 -45.796814,81.604141 -10.393219,124.446701c166.433167,-116.188721 110.61261,-175.254715 188.688538,-169.906799l-4.769226,-7.735245l5.172638,-11.22049c0,0 -29.166504,-46.954781 -71.256622,-46.73082zm13.050446,21.010559c1.089447,-0.032089 2.216827,0.093246 3.322266,0.392532c5.891632,1.594452 9.326721,7.541855 7.688049,13.275513c-1.639648,5.733643 -7.727966,9.09845 -13.620605,7.503967c-5.891632,-1.595444 -9.350708,-7.542847 -7.711029,-13.276474c1.331116,-4.658051 5.603027,-7.756607 10.32132,-7.895538z" fill="#000000" id="path3245-6-9"/>
   <path d="m411.564636,123.97477c-6.470795,0.190437 -12.339447,4.416969 -14.165863,10.805519c-2.247772,7.862488 2.478516,16.00679 10.55899,18.192963c8.080505,2.18718 16.450592,-2.411606 18.698395,-10.274109c2.247803,-7.862518 -2.479462,-16.005829 -10.55899,-18.192978c-1.515839,-0.410431 -3.038666,-0.57531 -4.532532,-0.531395zm2.017151,4.502495c1.08844,-0.032089 2.192841,0.093246 3.298279,0.392532c5.891632,1.594452 9.350708,7.541855 7.711029,13.275513c-1.638641,5.733643 -7.750946,9.075104 -13.643585,7.480652c-5.891632,-1.594452 -9.350708,-7.519531 -7.711029,-13.253159c1.331116,-4.658051 5.626007,-7.756607 10.345306,-7.895538z" fill="#000000" id="path3292"/>
   <path d="m410.558868,-91.621315a4.872097,4.74066 0 1 1 -8.990326,-5.27491a4.872097,4.74066 0 1 1 8.990326,5.27491z" fill="#000000" id="path3296"/>
   <path d="m400.507355,107.466705c-22.820526,0.121063 -49.421661,14.124237 -77.26004,56.981628c50.703827,-64.396118 94.412628,-53.705261 116.933594,-43.267227c-11.046295,-7.760002 -24.516113,-13.795052 -39.673553,-13.714401z" fill="#000000" id="path3245-6-9-2-1"/>
   <path d="m326.640472,309.604523c67.752594,-56.607742 80.949829,-96.255508 96.029358,-117.796768c-71.703979,-3.614502 -59.574219,64.657791 -96.029358,117.796768z" fill="#000000" id="path4336"/>
   <g transform="matrix(0.659356 0 0 0.641568 72.0076 14.2357)" id="g4248">
    <g id="g4237">
     <path d="m623.687134,711.918579c0,0 13.583984,9.026001 25.164001,-1.085999c51.062988,-73.059998 110.485962,-97.250977 141.014954,-167.539001c5.112,56.64801 -89.414001,117.788025 -89.414001,117.788025c0,0 56.90802,-30.187988 88.156006,-79.929016c-0.610962,39.354004 -86.731995,83.437012 -86.731995,83.437012c0,0 35.820984,-13.903992 83.731995,-56.325012c-2.893982,26.236023 -83.799988,60.697998 -83.799988,60.697998c0,0 52.30603,-22.757019 81.075989,-43.612976c-8.232971,31.18396 -80.143982,49.440002 -80.143982,49.440002c0,0 29.570007,-7.468994 66.244995,-13.158997c-15.883972,19.750977 -66.963013,19.270996 -66.963013,19.270996c0,0 36.06604,3.973999 57.827026,0.666992c1.502014,24.192017 -58.769043,13.698975 -58.769043,13.698975c0,0 34.217041,6.062012 53.44104,13.048035c-3.127991,21.372009 -57.507019,-0.735046 -57.507019,-0.735046c0,0 28.807007,12.341003 45.625,25.075012c-8.849976,4.078003 -46.974976,-20.427002 -46.974976,-20.427002c0,0 33.927979,22.137024 39.717957,35.059021c-7.343994,4.843994 -41.805969,-29.164001 -41.805969,-29.164001c0,0 29.370972,27.473999 34.534973,42.164001c-9.020996,-2.96698 -38.246948,-32.106018 -38.246948,-32.106018c0,0 28.346985,26.604004 30.610962,40.282043c-3.273987,5.059998 -35.617981,-31.581055 -35.617981,-31.581055c0,0 25.940979,27.120056 28.175964,37.536011c-7.276978,0.472046 -35.394958,-30.539001 -35.394958,-30.539001c0,0 18.450012,15.652039 29.041016,38.439026c-9.662048,-2.828979 -35.096008,-33.054016 -35.096008,-33.054016c0,0 22.042969,22.236023 28.615967,38.80304c-13.606995,-0.894043 -37.619019,-49.629028 -76.511963,-76.149048z" fill="#000000" id="path3245-7-2"/>
     <path d="m687.594116,853.438599l0,0zm0,0c34.768982,-43.23999 -56.603027,-120.859009 -10.207031,-125.604004c7.657043,-0.31897 15.460999,-2.10498 23.117004,-4.916992c44.304993,61.815979 59.790039,163.012024 58.584045,360.384033c-11.837036,-176.051025 -29.295044,-198.466064 -47.259033,-213.108032c-8.583008,-5.703003 -16.632019,-11.276001 -24.234985,-16.731018c0.007019,-0.003967 -0.007019,-0.018982 0,-0.023987z" fill="#000000" id="path2816-6-8-5-0-0"/>
     <path d="m501.891113,662.84259l5.080017,11.325012l-4.684021,7.830017c-45.275024,27.69696 -97.617004,83.33197 -97.617004,83.33197c0,0 35.43399,-45.494019 97.221008,-102.487z" fill="#000000" id="path2816-6-6-6"/>
     <path d="m961.828064,551.07959c-11.189941,56.460999 -182.139954,96.406006 -182.139954,96.406006c0,0 100.666992,-17.578003 167.25,-59.656006c-14.380005,38.350037 -166.200989,63.384033 -166.200989,63.384033c0,0 61.643982,-6.069031 152.190979,-37.495056c-11.544006,21.362061 -115.01001,36.624023 -145.27002,40.665039c19.780029,-2.536987 88.479004,-11.537964 133.17804,-20.203979c-14.814026,17.975952 -85.299011,24.48999 -136.067993,26.844971c39.22699,-0.848999 88.146973,-1.625977 105.143982,-0.721985c-29.848999,18.088013 -114.487976,6.896973 -114.487976,6.896973c0,0 55.917969,11.462036 91.60498,12.794006c-5.859009,23.968994 -98.013977,1.048035 -98.013977,1.048035c0,0 52.292969,13.115967 80.442993,23.978943c-9.782043,16.161011 -59.152039,-3.053955 -78.695007,-11.464966c14.258972,6.547974 43.245972,20.887024 51.523987,32.763977c-15.447021,2.131042 -66.320984,-29.570984 -66.320984,-29.570984c0,0 45.027954,28.515991 49.82196,42.36499c-10.94397,2.626038 -41.701965,-23.096985 -52.432007,-32.437988c9.542053,8.507019 33.876038,31.202026 36.446045,43.622986c-9.987,-3.594971 -33.017029,-23.96698 -43.903015,-33.929016c10.14801,9.746033 29.781006,30.02301 28.989014,40.315002c-6.876038,0.616028 -28.608032,-20.640991 -39.476013,-31.763c9.310974,9.929016 25.633972,28.40802 25.633972,36.027039c-6.578979,-0.598022 -21.09198,-13.686035 -32.554993,-25.051025c7.43103,8.752991 15.528015,19.981018 19.761047,31.436035c-8.433044,-2.811035 -22.246033,-15.950012 -32.251038,-26.356018c8.319031,10.299988 18.377991,23.890015 18.223022,29.245972c0,0 -13.744995,-5.844971 -30.76001,-27.10199c6.466003,9.204041 14.703003,22.158997 15.729004,29.734985c0,0 -43.561035,-29.542969 -52.129028,-70.934998c25.109009,-3.272949 33.769043,10.943054 36.702026,19.738037c49.461975,-20.197021 90.401001,-81.374023 37.35498,-65.481995c74.79303,-32.534973 152.609009,-58.518005 220.70697,-105.098022z" fill="#000000" id="path3245-6-4"/>
     <path d="m571.870117,615.676575c22.411987,0.122009 48.536011,14.255981 75.875977,57.512024c8.151001,5.349976 15.782043,11.036987 22.907043,17.174988c22.902954,-12.65802 46.523987,-23.768982 70.467957,-34.185974c54.390015,-16.355042 10.338013,48.050964 -40.617004,66.763977c-7.656006,2.811035 -15.459961,4.596985 -23.117004,4.916992c-46.395996,4.744995 44.976013,82.363037 10.207031,125.604004c-163.450989,-117.269958 -108.630981,-176.885986 -185.307007,-171.487976l4.684021,-7.807007l-5.080017,-11.325012c0,0 28.643005,-47.391968 69.979004,-47.166016zm-12.815979,21.206055c-1.070007,-0.03302 -2.17804,0.093994 -3.263,0.395996c-5.786011,1.609985 -9.160034,7.612976 -7.550049,13.398987c1.610046,5.786987 7.588989,9.18396 13.376038,7.573975c5.786011,-1.609985 9.182983,-7.612976 7.572998,-13.398987c-1.307007,-4.702026 -5.502014,-7.830017 -10.135986,-7.969971z" fill="#000000" id="path3245-6-9-3"/>
     <path d="m561.011108,632.338562c6.35498,0.192017 12.117981,4.458008 13.911987,10.906006c2.207031,7.935059 -2.43396,16.155029 -10.369995,18.363037c-7.934998,2.20697 -16.154968,-2.434998 -18.362976,-10.369995c-2.207031,-7.936035 2.434998,-16.156006 10.369995,-18.363037c1.487976,-0.41394 2.984985,-0.580933 4.450989,-0.536011zm-1.981018,4.544067c-1.06897,-0.03302 -2.153992,0.093994 -3.238953,0.395996c-5.786011,1.609985 -9.183044,7.612976 -7.573059,13.398987c1.609009,5.786987 7.612,9.159973 13.399048,7.550964c5.786011,-1.609985 9.182983,-7.589966 7.572998,-13.375977c-1.307007,-4.702026 -5.526001,-7.830017 -10.160034,-7.969971z" fill="#000000" id="path3292-3"/>
     <path d="m573.285217,668.460388c1.003418,3.607239 4.741577,5.717651 8.348755,4.714233c3.607239,-1.003418 5.717834,-4.740784 4.714417,-8.347961c-1.003418,-3.607239 -4.740967,-5.718567 -8.348206,-4.715149c-3.607178,1.003418 -5.718384,4.741699 -4.714966,8.348877z" transform="matrix(-0.718425 0.199844 0.199844 0.718425 936.584 110.266)" fill="#000000" id="path3296-6"/>
     <path d="m571.870117,615.676575c22.411987,0.122009 48.536011,14.255981 75.875977,57.512024c-49.795959,-64.996033 -92.721008,-54.205017 -114.838989,-43.669983c10.848999,-7.832031 24.077026,-13.922974 38.963013,-13.842041z" fill="#000000" id="path3245-6-9-2-1-9"/>
     <path d="m644.413086,819.695618c-66.537964,-57.134033 -79.498962,-97.151001 -94.307983,-118.892029c70.419006,-3.648987 58.507019,65.259033 94.307983,118.892029z" fill="#000000" id="path4336-0"/>
    </g>
   </g>
  </g>
 </g>
</svg>